<svg width="222" height="46" viewBox="0 0 222 46" fill="none" xmlns="http://www.w3.org/2000/svg">
<path d="M76.5733 6.59245C73.6245 3.67974 69.9231 1.62242 65.8723 0.644639C61.8215 -0.333138 57.5768 -0.193855 53.6006 1.04731C49.6244 2.28847 46.0693 4.5839 43.3227 7.68349C40.5761 10.7831 38.7433 14.5679 38.024 18.6256H24.6432L21.8221 26.3847H37.1654C36.2672 29.6234 34.2761 32.4617 31.5218 34.4297C28.7675 36.3976 25.4154 37.3771 22.0206 37.2057C18.6258 37.0344 15.3922 35.7226 12.8552 33.4876C10.3183 31.2527 8.63028 28.2286 8.07084 24.9164C7.5114 21.6042 8.11408 18.2025 9.77906 15.275C11.444 12.3474 14.0714 10.0695 17.226 8.8186C20.3805 7.56773 23.873 7.41896 27.1248 8.3969C30.3767 9.37484 33.1928 11.4208 35.1067 14.196C36.0015 11.5213 37.3288 9.00748 39.0373 6.75217C36.9173 4.61361 34.3861 2.91512 31.5923 1.75648C28.7985 0.597831 25.7985 0.00240016 22.7685 0.00514172C18.4323 0.00640817 14.1865 1.23055 10.5303 3.53367C6.87404 5.8368 3.95937 9.12318 2.12885 13.0065C0.298319 16.8898 -0.371978 21.2087 0.196757 25.4554C0.765491 29.7021 2.54962 33.7002 5.33941 36.9797C8.1292 40.2591 11.8087 42.6836 15.9454 43.9682C20.0821 45.2529 24.504 45.3442 28.6914 44.2314C32.8788 43.1187 36.6577 40.8481 39.5837 37.6866C42.5098 34.5252 44.4614 30.6042 45.2092 26.3847H58.59L61.4126 18.6256H46.0664C46.9644 15.3868 48.9554 12.5482 51.7097 10.5801C54.4639 8.61196 57.8161 7.63234 61.2109 7.80352C64.6057 7.97469 67.8395 9.28639 70.3766 11.5213C72.9136 13.7563 74.6017 16.7804 75.1613 20.0926C75.7208 23.4049 75.1181 26.8066 73.4531 29.7343C71.7881 32.6619 69.1607 34.9399 66.0061 36.1907C62.8514 37.4416 59.3589 37.5903 56.107 36.6123C52.8551 35.6343 50.039 33.5882 48.1251 30.813C47.2298 33.4878 45.9025 36.002 44.1945 38.2581C45.2287 39.2988 46.362 40.2385 47.5788 41.0643C52.2622 44.2349 57.9753 45.5635 63.5987 44.7898C69.222 44.0162 74.3503 41.196 77.9785 36.8819C81.6068 32.5677 83.4736 27.0706 83.2131 21.4677C82.9527 15.8648 80.5837 10.5599 76.5705 6.59245H76.5733Z" fill="#FF8B00"/>
<path d="M91.4985 19.1569V0.00634766H96.2097V19.1569H91.4985Z" fill="#231F20"/>
<path d="M112.872 19.1561L109.496 11.598C108.381 9.1195 107.291 6.51434 106.337 3.93256H106.283C106.423 6.62174 106.501 9.31092 106.501 12.0015V19.1616H101.978V0.00550476H108.757L112.161 7.56356C113.251 10.0421 114.339 12.6473 115.319 15.229H115.374C115.211 12.5399 115.156 9.8493 115.156 7.16012V0H119.679V19.1506L112.872 19.1561Z" fill="#231F20"/>
<path d="M130.133 3.98611V8.39236H138.137V12.3566H130.133V19.1615H125.421V0.00537109H138.762V3.98611H130.133Z" fill="#231F20"/>
<path d="M143.145 19.156V0.00537109H147.856V19.156H143.145Z" fill="#231F20"/>
<path d="M164.517 19.1561L161.14 11.598C160.025 9.1195 158.935 6.51434 157.982 3.93256H157.929C158.068 6.62174 158.146 9.31092 158.146 12.0015V19.1616H153.626V0.00550476H160.406L163.809 7.56356C164.898 10.0421 165.988 12.6473 166.968 15.229H167.022C166.859 12.5399 166.803 9.8493 166.803 7.16012V0H171.324V19.1506L164.517 19.1561Z" fill="#231F20"/>
<path d="M177.067 19.156V0.00537109H181.777V19.156H177.067Z" fill="#231F20"/>
<path d="M196.153 3.9572V19.1546H191.442V3.9572H185.507V0.00537109H202.093V3.9572H196.153Z" fill="#231F20"/>
<path d="M215.346 19.156H210.637V11.9201L203.992 0.00537109H209.22L210.908 3.47528C211.671 5.03399 212.379 6.67531 212.978 8.2946H213.033C213.621 6.65166 214.303 5.04268 215.075 3.47528L216.763 0.00537109H221.989L215.346 11.9201V19.156Z" fill="#231F20"/>
<path d="M96.2097 29.4046V33.8108H104.214V37.7641H96.2097V44.5772H91.4985V25.4238H104.84V29.4046H96.2097Z" fill="#231F20"/>
<path d="M126.838 34.9989C126.838 41.158 123.244 45.0052 117.473 45.0052C111.673 45.0052 108.08 41.158 108.08 34.9989C108.08 28.8398 111.673 24.9927 117.473 24.9927C123.244 24.9927 126.838 28.8398 126.838 34.9989ZM113.007 34.9989C113.007 38.7649 114.64 40.9707 117.467 40.9707C120.271 40.9707 121.905 38.7676 121.905 34.9989C121.905 31.2302 120.271 29.0271 117.467 29.0271C114.64 29.0271 113.007 31.233 113.007 34.9989Z" fill="#231F20"/>
<path d="M139.332 25.4238C144.287 25.4238 146.465 27.4135 146.465 30.8834C146.502 31.9491 146.169 32.995 145.52 33.8469C144.87 34.6989 143.945 35.3053 142.899 35.565V35.6188C144.292 36.1034 144.967 36.9957 145.866 39.466L147.745 44.5758H142.677L141.208 40.2453C140.526 38.2817 139.764 37.5823 137.939 37.5823H136.171V44.5772H131.459V25.4238H139.332ZM136.173 34.0573H138.76C140.938 34.0573 141.809 33.0934 141.809 31.4755C141.809 29.7805 140.638 29.0273 138.569 29.0273H136.173V34.0573Z" fill="#231F20"/>
<path d="M167.702 32.3097H162.824C162.818 31.8597 162.72 31.4155 162.535 31.0039C162.351 30.5924 162.084 30.222 161.751 29.9152C161.417 29.6084 161.024 29.3716 160.596 29.2189C160.167 29.0663 159.712 29.001 159.257 29.0271C156.698 29.0271 155.119 31.2867 155.119 34.9989C155.119 38.7112 156.698 40.9707 159.202 40.9707C159.668 40.989 160.133 40.9153 160.57 40.754C161.007 40.5928 161.407 40.3472 161.746 40.0316C162.086 39.716 162.358 39.3367 162.548 38.9159C162.737 38.4951 162.84 38.0412 162.85 37.5807H167.779C167.397 42.3422 164.131 45.0052 159.202 45.0052C153.627 45.0052 150.19 41.2117 150.19 34.9989C150.19 28.7861 153.648 24.9927 159.25 24.9927C164.272 24.9927 167.511 27.8443 167.702 32.3097Z" fill="#231F20"/>
<path d="M177.148 29.3233V32.9544H185.535V36.8016H177.148V40.6735H186.347V44.5772H172.434V25.4238H186.13V29.3233H177.148Z" fill="#231F20"/>
</svg>
