<svg width="52" height="62" viewBox="0 0 52 62" fill="none" xmlns="http://www.w3.org/2000/svg">
<path d="M51.5844 34.5796C49.3269 23.2756 42.998 14.7664 32.6572 9.31993C31.985 8.96589 31.7256 8.59919 31.7976 7.8691C31.9332 6.49187 32.0149 5.1091 32.0986 3.72732C32.1525 2.84069 31.7989 2.17557 30.9286 1.84227C26.175 0.0227396 21.5081 -0.0586835 17.0248 2.62041C16.6804 2.82601 16.4154 3.48759 16.4438 3.91547C16.5501 5.00003 16.724 6.07702 16.9646 7.14029C17.4037 9.40313 17.3879 9.36695 15.489 10.6999C7.67048 16.1876 2.90102 23.6731 0.718487 32.8577C-1.28815 41.3021 0.939568 48.5952 7.01079 54.6794C11.9682 59.6474 18.3317 61.3096 25.1785 61.5312C30.1377 61.6101 34.7169 60.1383 39.1349 58.1366C48.383 53.9465 53.553 44.4362 51.5844 34.5796ZM45.0006 33.321L40.829 40.4234L30.3999 34.8707L21.3394 44.2974L11.3013 36.0975L4.39196 42.2957L3.60998 34.806L4.71796 39.0674L11.3013 33.7729L20.5571 40.8753L30.139 32.7399L40.3075 37.6459L44.805 31.0331L48.3902 36.4839L45.0006 33.321ZM41.2949 51.1749C39.6781 52.4497 37.8362 52.822 37.1808 52.0064C36.5255 51.1908 37.3046 49.496 38.9214 48.2212C40.5382 46.9464 42.3802 46.5741 43.0358 47.3897C43.6914 48.2052 42.912 49.9003 41.2949 51.1749ZM17.7757 17.9791C19.5576 19.0882 19.2199 22.7976 17.0207 26.2639C14.8216 29.7302 11.5942 31.6411 9.81218 30.5319C8.0302 29.4228 8.36796 25.7131 10.5668 22.2468C12.7657 18.7805 15.9934 16.8696 17.7757 17.9791Z" fill="white"/>
</svg>
